<svg width="24.000000" height="24.000000" viewBox="0 0 24 24" fill="none" xmlns="http://www.w3.org/2000/svg" xmlns:xlink="http://www.w3.org/1999/xlink">
	<desc>
			Created with Pixso.
	</desc>
	<defs>
		<clipPath id="clip13_11206">
			<rect id="Frame" rx="0.000000" width="23.000000" height="23.000000" transform="translate(0.500000 0.500000)" fill="white" fill-opacity="0"/>
		</clipPath>
	</defs>
	<rect id="Frame" rx="0.000000" width="23.000000" height="23.000000" transform="translate(0.500000 0.500000)" fill="#FFFFFF" fill-opacity="0"/>
	<g clip-path="url(#clip13_11206)">
		<path id="Vector" d="M14.12 12.62C13.55 13.18 12.79 13.5 12 13.5C11.2 13.5 10.44 13.18 9.87 12.62C9.31 12.05 9 11.29 9 10.5C9 9.7 9.31 8.94 9.87 8.37C10.44 7.81 11.2 7.5 12 7.5C12.79 7.5 13.55 7.81 14.12 8.37C14.68 8.94 15 9.7 15 10.5C15 11.29 14.68 12.05 14.12 12.62Z" stroke="#424242" stroke-opacity="1.000000" stroke-width="1.500000" stroke-linejoin="round"/>
		<path id="Vector" d="M12 21.75C12 21.75 4.5 17.64 4.5 10.5C4.5 8.51 5.29 6.6 6.69 5.19C8.1 3.79 10.01 3 12 3C13.98 3 15.89 3.79 17.3 5.19C18.7 6.6 19.5 8.51 19.5 10.5C19.5 17.64 12 21.75 12 21.75Z" stroke="#424242" stroke-opacity="1.000000" stroke-width="1.500000" stroke-linejoin="round"/>
	</g>
</svg>
