<svg width="24.000000" height="24.000000" viewBox="0 0 24 24" fill="none" xmlns="http://www.w3.org/2000/svg" xmlns:xlink="http://www.w3.org/1999/xlink">
	<desc>
			Created with Pixso.
	</desc>
	<defs>
		<clipPath id="clip13_11212">
			<rect id="Frame" rx="0.000000" width="23.000000" height="23.000000" transform="translate(0.500000 0.500000)" fill="white" fill-opacity="0"/>
		</clipPath>
	</defs>
	<rect id="Frame" rx="0.000000" width="23.000000" height="23.000000" transform="translate(0.500000 0.500000)" fill="#FFFFFF" fill-opacity="0"/>
	<g clip-path="url(#clip13_11212)">
		<path id="Vector" d="M19.5 14.25L19.5 11.62C19.5 10.73 19.14 9.87 18.51 9.23C17.87 8.6 17.02 8.25 16.12 8.25L14.62 8.25C14.32 8.25 14.04 8.13 13.82 7.92C13.61 7.7 13.5 7.42 13.5 7.12L13.5 5.62C13.5 4.72 13.14 3.87 12.51 3.23C11.87 2.6 11.02 2.25 10.12 2.25L8.25 2.25M9 16.5L9 17.25M12 14.25L12 17.25M15 12L15 17.25M5.62 2.25C5 2.25 4.5 2.75 4.5 3.37L4.5 20.62C4.5 21.24 5 21.75 5.62 21.75L18.37 21.75C18.99 21.75 19.5 21.24 19.5 20.62L19.5 11.25C19.5 8.86 18.55 6.57 16.86 4.88C15.17 3.19 12.88 2.25 10.5 2.25L5.62 2.25Z" stroke="#131313" stroke-opacity="0.600000" stroke-width="1.500000" stroke-linejoin="round" stroke-linecap="round"/>
	</g>
</svg>
