<svg width="21.000732" height="19.500000" viewBox="0 0 21.0007 19.5" fill="none" xmlns="http://www.w3.org/2000/svg" xmlns:xlink="http://www.w3.org/1999/xlink">
	<desc>
			Created with Pixso.
	</desc>
	<defs/>
	<path id="Vector" d="M13.5 16.87C14.35 17.12 15.23 17.25 16.12 17.25C17.55 17.25 18.96 16.92 20.24 16.29C20.28 15.4 20.02 14.51 19.51 13.77C19.01 13.04 18.27 12.48 17.42 12.2C16.57 11.92 15.64 11.92 14.8 12.21C13.95 12.5 13.21 13.06 12.71 13.8M13.5 16.87C13.5 15.76 13.21 14.71 12.71 13.8C12.03 12.56 10.95 11.58 9.65 11.02C8.36 10.45 6.91 10.34 5.54 10.69C4.16 11.04 2.95 11.84 2.08 12.96C1.21 14.08 0.74 15.45 0.75 16.87L0.75 16.98C2.61 18.1 4.79 18.75 7.12 18.75C9.37 18.75 11.57 18.14 13.5 16.98L13.5 16.87L13.5 16.87ZM9.51 6.51C8.87 7.14 8.02 7.5 7.12 7.5C6.23 7.5 5.37 7.14 4.73 6.51C4.1 5.87 3.75 5.02 3.75 4.12C3.75 3.22 4.1 2.37 4.73 1.73C5.37 1.1 6.23 0.75 7.12 0.75C8.02 0.75 8.87 1.1 9.51 1.73C10.14 2.37 10.5 3.22 10.5 4.12C10.5 5.02 10.14 5.87 9.51 6.51ZM17.98 8.23C17.49 8.72 16.82 9 16.12 9C15.42 9 14.76 8.72 14.26 8.23C13.77 7.73 13.5 7.07 13.5 6.37C13.5 5.67 13.77 5.01 14.26 4.51C14.76 4.02 15.42 3.75 16.12 3.75C16.82 3.75 17.49 4.02 17.98 4.51C18.47 5.01 18.75 5.67 18.75 6.37C18.75 7.07 18.47 7.73 17.98 8.23Z" stroke="#131313" stroke-opacity="0.600000" stroke-width="1.500000" stroke-linejoin="round"/>
</svg>
