<svg width="19.815170" height="18.972412" viewBox="0 0 19.8152 18.9724" fill="none" xmlns="http://www.w3.org/2000/svg" xmlns:xlink="http://www.w3.org/1999/xlink">
	<desc>
			Created with Pixso.
	</desc>
	<defs/>
	<path id="Vector" d="M9.59 0.84C9.68 0.78 9.79 0.75 9.9 0.75C10.01 0.75 10.12 0.78 10.22 0.84C10.31 0.9 10.38 0.99 10.42 1.09L12.55 6.2C12.59 6.3 12.65 6.38 12.74 6.44C12.82 6.51 12.92 6.54 13.02 6.55L18.54 6.99C19.04 7.03 19.24 7.65 18.86 7.98L14.66 11.58C14.58 11.65 14.52 11.74 14.49 11.83C14.46 11.93 14.45 12.04 14.48 12.14L15.76 17.52C15.79 17.63 15.78 17.75 15.74 17.85C15.7 17.95 15.63 18.04 15.54 18.11C15.45 18.17 15.35 18.21 15.24 18.22C15.13 18.22 15.02 18.19 14.92 18.13L10.2 15.25C10.11 15.2 10.01 15.17 9.9 15.17C9.8 15.17 9.7 15.2 9.61 15.25L4.88 18.13C4.79 18.19 4.68 18.22 4.57 18.22C4.46 18.21 4.35 18.18 4.26 18.11C4.17 18.04 4.1 17.95 4.06 17.85C4.03 17.75 4.02 17.63 4.04 17.52L5.33 12.14C5.35 12.04 5.35 11.93 5.32 11.83C5.28 11.74 5.23 11.65 5.15 11.58L0.94 7.98C0.86 7.91 0.8 7.81 0.77 7.7C0.74 7.6 0.74 7.48 0.77 7.38C0.81 7.27 0.87 7.18 0.96 7.11C1.05 7.04 1.15 7 1.26 6.99L6.78 6.55C6.89 6.54 6.98 6.51 7.07 6.44C7.15 6.38 7.22 6.3 7.26 6.2L9.38 1.09C9.42 0.99 9.5 0.9 9.59 0.84Z" stroke="#424242" stroke-opacity="1.000000" stroke-width="1.500000" stroke-linejoin="round"/>
</svg>
